<svg width="60" height="60" viewBox="0 0 60 60" fill="none" xmlns="http://www.w3.org/2000/svg">
<rect width="60" height="60" rx="6" fill="url(#paint0_linear_140_95)"/>
<path fill-rule="evenodd" clip-rule="evenodd" d="M29.4736 9.96809C19.0516 9.96809 11.4587 16.982 9.98728 27.1784C9.88346 27.9091 10.2109 28.5221 10.8178 28.6159C11.4168 28.7097 11.9239 28.2405 12.0477 27.5417C13.4912 19.4198 20.579 14.0011 29.4756 14.0011C39.1709 14.0011 45.9272 20.7575 45.9272 30.4527C45.9272 38.97 40.0853 46.3553 32.3607 47.8707C31.6619 48.0104 31.1967 48.5235 31.2985 49.1205C31.3983 49.7255 32.0113 50.0529 32.74 49.9491C42.9324 48.5036 49.9603 40.8887 49.9603 30.4527C49.9603 18.4355 41.4909 9.96809 29.4756 9.96809H29.4736ZM23.3841 30.305C24.3784 29.0631 25.5604 27.7095 26.958 26.3418C32.2888 20.9651 38.2265 20.6377 38.7696 21.2127C39.3606 21.7717 39.0032 27.6635 33.6424 33.0562C32.2748 34.4538 30.9371 35.6358 29.6793 36.6301V40.6112C29.6793 41.9688 29.6793 42.0427 28.7449 42.7395C28.6451 42.8134 28.4853 42.9392 28.2697 43.1049C27.3533 43.8157 25.4905 45.2612 23.5239 46.4691C22.9329 46.8285 22.4358 46.531 22.8251 46.0039C23.7031 44.7979 24.4381 43.4941 25.0153 42.1186C25.4506 41.0924 25.4506 40.16 25.0153 39.3514C23.462 39.8505 22.1862 39.6928 21.2399 38.7764C20.2755 37.844 20.1517 36.5382 20.6489 34.9689C20.214 34.7538 19.7354 34.6419 19.2503 34.6419C18.7652 34.6419 18.2866 34.7538 17.8517 34.9689C16.6697 35.4042 15.3959 36.1489 13.9644 37.1452C13.4054 37.5485 13.1099 37.0513 13.4992 36.4604C14.757 34.372 16.3064 32.4193 16.9792 31.5728L17.2288 31.2533C17.9276 30.3209 18.0074 30.3209 19.5608 30.3209H23.3382L23.3841 30.305ZM18.6124 38.6985C18.6962 38.7903 18.4447 38.992 18.0334 39.3254C16.9053 40.2378 14.5714 42.1266 14.5714 45.381C17.8417 45.381 19.7345 43.0769 20.6509 41.9609C20.9883 41.5496 21.1939 41.3 21.2858 41.3878C21.5972 41.6973 20.555 44.2309 18.7681 46.0039C17.7522 47.0052 16.5395 47.7846 15.2067 48.2929C13.8739 48.8012 12.4502 49.0273 11.0255 48.9568C11.0255 45.3829 12.1915 42.9871 13.9804 41.2161C15.7653 39.4292 18.285 38.387 18.6104 38.7304V38.6985H18.6124Z" fill="white"/>
<defs>
<linearGradient id="paint0_linear_140_95" x1="5.81276e-08" y1="-38.3333" x2="60.8302" y2="88.6233" gradientUnits="userSpaceOnUse">
<stop stop-color="#3878F9"/>
<stop offset="1" stop-color="#2E3192"/>
</linearGradient>
</defs>
</svg>
